<?xml version="1.0" encoding="utf-8"?>
<!-- Generator: Adobe Illustrator 25.2.0, SVG Export Plug-In . SVG Version: 6.00 Build 0)  -->
<svg version="1.2" baseProfile="tiny-ps" id="Camada_1"
	 xmlns="http://www.w3.org/2000/svg" xmlns:xlink="http://www.w3.org/1999/xlink" viewBox="0 0 266.44 86.3"
	  xml:space="preserve">
	<title>POTYGRASS</title>
<path fill="#2C2518" d="M228.87,69.17h-2.02V75h0.61v-1.94h1.33c1.41,0,2.29-0.76,2.29-1.98C231.08,69.93,230.2,69.17,228.87,69.17z
	 M228.83,72.52h-1.37v-2.78h1.37c0.99,0,1.68,0.53,1.68,1.33C230.51,71.95,229.82,72.52,228.83,72.52z"/>
<polygon fill="#2C2518" points="246.78,69.74 246.78,69.17 242.74,69.17 242.74,75 246.78,75 246.78,74.43 243.35,74.43 
	243.35,72.37 246.43,72.37 246.43,71.8 243.35,71.8 243.35,69.74 "/>
<polygon fill="#2C2518" points="188.41,73.1 186.09,69.17 185.59,69.17 185.59,75 186.2,75 186.2,70.47 188.22,73.86 188.6,73.86 
	190.62,70.51 190.62,75 191.23,75 191.23,69.17 190.74,69.17 "/>
<path fill="#2C2518" d="M181.33,69.13L178.66,75h0.69l0.72-1.71h3.05l0.76,1.71h0.65l-2.63-5.87H181.33z M180.34,72.75l1.26-2.9
	l1.3,2.9H180.34z"/>
<path fill="#2C2518" d="M177.86,71.04c0-1.14-0.91-1.87-2.21-1.87h-2.17V75h0.61v-2.13h1.45l1.83,2.13h0.76l-1.87-2.17
	C177.21,72.64,177.86,71.99,177.86,71.04z M174.09,72.33v-2.59h1.52c0.95,0,1.64,0.46,1.64,1.3c0,0.8-0.69,1.3-1.64,1.3H174.09z"/>
<path fill="#2C2518" d="M168.91,71.95v0.53h2.21c-0.15,1.18-0.91,2.02-2.17,2.02c-1.37,0-2.36-1.07-2.36-2.4
	c0-1.41,1.07-2.48,2.44-2.48c0.88,0,1.79,0.5,2.06,1.45h0.65c-0.3-1.26-1.45-2.02-2.74-2.02c-1.68,0-3.01,1.3-3.01,3.05
	c0,1.64,1.3,3.01,2.97,3.01c1.1,0,1.83-0.53,2.25-1.37l0.08,1.26h0.5v-2.93h-0.04l0.04-0.11H168.91z"/>
<polygon fill="#2C2518" points="236.83,69.74 239.01,69.74 239.01,75 239.61,75 239.61,69.74 241.79,69.74 241.79,69.17 
	236.83,69.17 "/>
<polygon fill="#2C2518" points="232.22,75 236.26,75 236.26,74.43 232.83,74.43 232.83,72.37 235.92,72.37 235.92,71.8 232.83,71.8 
	232.83,69.74 236.26,69.74 236.26,69.17 232.22,69.17 "/>
<path fill="#2C2518" d="M222.55,69.13L219.92,75h0.65l0.76-1.71h3.05l0.76,1.71h0.65l-2.67-5.87H222.55z M221.56,72.75l1.3-2.9
	l1.26,2.9H221.56z"/>
<path fill="#2C2518" d="M194.93,69.13L192.3,75h0.65l0.76-1.71h3.05l0.76,1.71h0.65l-2.67-5.87H194.93z M193.94,72.75l1.3-2.9
	l1.26,2.9H193.94z"/>
<polygon fill="#2C2518" points="220.26,69.17 215.35,69.17 215.35,69.74 217.48,69.74 217.48,75 218.09,75 218.09,69.74 
	220.26,69.74 "/>
<polygon fill="#2C2518" points="209.75,73.1 207.38,69.17 206.93,69.17 206.93,75 207.54,75 207.5,70.47 209.52,73.86 209.94,73.86 
	211.92,70.51 211.92,75 212.53,75 212.53,69.17 212.07,69.17 "/>
<polygon fill="#2C2518" points="201.52,75 205.56,75 205.56,74.43 202.13,74.43 202.13,72.37 205.21,72.37 205.21,71.8 202.13,71.8 
	202.13,69.74 205.56,69.74 205.56,69.17 201.52,69.17 "/>
<path fill="none" stroke="#2C2518" stroke-width="0.0283" stroke-miterlimit="7.6613" d="M176.36,75.23"/>
<path fill="none" stroke="#2C2518" stroke-width="0.0283" stroke-miterlimit="7.6613" d="M183.94,75.65"/>
<path fill="none" stroke="#2C2518" stroke-width="0.0283" stroke-miterlimit="7.6613" d="M183.71,75.12"/>
<path fill="none" stroke="#2C2518" stroke-width="0.0283" stroke-miterlimit="7.6613" d="M197.58,75.65"/>
<path fill="none" stroke="#2C2518" stroke-width="0.0283" stroke-miterlimit="7.6613" d="M197.31,75.12"/>
<path fill="none" stroke="#2C2518" stroke-width="0.0283" stroke-miterlimit="7.6613" d="M225.2,75.65"/>
<path fill="none" stroke="#2C2518" stroke-width="0.0283" stroke-miterlimit="7.6613" d="M224.93,75.12"/>
<rect x="135.74" y="59.36" fill="#0DA75A" width="112.04" height="3.35"/>
<path fill="#0DA75A" d="M230.62,50.07h9.77c3.15,0,4.74-1.27,4.74-3.6c0-2.09-1.43-3.23-4.42-4.74l-4.78-2.45
	c-3.48-1.76-5.19-4.05-5.19-7.07c0-4.13,3.15-6.91,8.75-6.91h8.26v3.76h-9.53c-2.21,0-3.56,1.23-3.56,3.03
	c0,2.13,1.72,3.07,4.91,4.7l4.17,2.13c3.64,1.84,5.36,4.17,5.36,7.36c0,4.7-3.27,7.6-9.44,7.6h-9.04V50.07z"/>
<path fill="#0DA75A" d="M210.14,50.07h9.77c3.15,0,4.74-1.27,4.74-3.6c0-2.09-1.43-3.23-4.42-4.74l-4.78-2.45
	c-3.48-1.76-5.19-4.05-5.19-7.07c0-4.13,3.15-6.91,8.75-6.91h8.26v3.76h-9.53c-2.21,0-3.56,1.23-3.56,3.03
	c0,2.13,1.72,3.07,4.91,4.7l4.17,2.13c3.64,1.84,5.36,4.17,5.36,7.36c0,4.7-3.27,7.6-9.44,7.6h-9.04V50.07z"/>
<path fill="#0DA75A" d="M204.32,40.75H193.2v-3.6h11.12v-1.14c0-5.07-2.25-7.69-6.13-7.69c-3.88,0-6.13,2.62-6.13,7.69v17.87h-3.8
	V35.93c0-6.99,4.09-11.12,9.93-11.12c5.85,0,9.93,4.13,9.93,11.12v17.95h-3.8V40.75z"/>
<path fill="#0DA75A" d="M166.43,35.56c0-6.87,3.68-10.75,9.32-10.75c5.27,0,9.04,3.64,9.04,8.05c0,2.7-1.31,4.87-3.84,6.26
	c3.03,0.82,4.25,3.03,4.25,6.99v7.77h-3.76v-6.34c0-4.42-1.02-6.17-5.4-6.17h-4.33v-3.47h3.35c3.8,0,5.85-1.84,5.85-4.78
	c0-2.74-2.04-4.78-5.19-4.78c-3.27,0-5.52,2.33-5.52,6.38v19.17h-3.76V35.56z"/>
<path fill="#0DA75A" d="M158.54,32.53l2.56-2.56c0,0-4.19-5.16-11.99-5.16c-7.79,0-14.31,6.29-14.31,15.44
	c0,9.38,8.88,14.11,14.5,14.11c4.95,0,14.85-3.24,14.43-16.8c-10.21,0-13.89-0.17-13.89-0.17v3.67h9.71c0,0-0.2,9.45-9.88,9.55
	c-8.65,0.09-11.01-7.69-11.01-11.28c0-3.58,2.82-11.06,10.58-11.05C155.03,28.29,158.54,32.53,158.54,32.53z"/>
<path fill="#AD3235" d="M131.77,37.4V26.5h-8.54v10.63c-0.12,0.31-0.47,1.01-1.27,1c-0.65-0.01-1-0.65-1.14-0.97V26.5h-8.54
	c0,0-0.06,6.62,0,8.97c0.07,2.65-0.71,7.59,5.44,9.08v9.04h8.54v-9.04C132.5,42.83,131.77,37.4,131.77,37.4z"/>
<polygon fill="#AD3235" points="111.7,26.48 94.22,26.48 94.22,34.08 98.72,34.08 98.72,53.59 107.2,53.59 107.2,34.08 111.7,34.08 
	"/>
<path fill="#AD3235" d="M80.05,26.48c-7.72,0-13.98,6.26-13.98,13.98s6.26,13.98,13.98,13.98c7.72,0,13.98-6.26,13.98-13.98
	S87.77,26.48,80.05,26.48z M80.05,45.65c-2.92,0-5.3-2.37-5.3-5.3c0-2.92,2.37-5.3,5.3-5.3c2.92,0,5.3,2.37,5.3,5.3
	C85.35,43.28,82.97,45.65,80.05,45.65z"/>
<path fill="#AD3235" d="M63.82,30.22c-1.96-3.92-12.92-8.45-17.63,0.59c-0.84,1.62-1.27,3.18-1.1,6.53v16.16h8.22V37.34
	c0,0-0.41-3.46,1.82-3.51c1.96-0.04,2.08,1.42,2.08,1.75s-0.65,2.7-2.63,2.25v7.59c0,0,3.85,0.81,6.86-1.67
	C65.78,40.16,66.2,34.98,63.82,30.22z"/>
<rect x="17.9" y="16.7" transform="matrix(0.7071 0.7071 -0.7071 0.7071 23.5912 -10.4744)" fill="#0DA75A" width="13.07" height="13.07"/>
<polygon fill="#AD3436" points="26.15,46.78 35.19,38.55 35.25,26.74 26.15,35.48 "/>
<polygon fill="#AD3436" points="23.05,46.9 13.91,38.52 13.91,26.68 23.07,35.43 "/>
<polygon fill="#0EA75A" points="26.26,62.69 35.19,54.25 35.19,41.56 26.15,50.1 "/>
<polygon fill="#0EA75A" points="23.05,62.68 13.91,54.25 13.91,41.56 23.07,50.05 "/>
</svg>
